<svg id="Laag_1" data-name="Laag 1" xmlns="http://www.w3.org/2000/svg" viewBox="0 0 236.08 235.09"><defs><style>.cls-1{fill:#1587c9;}</style></defs><path class="cls-1" d="M118,193c-2.33-4.11-4.57-8-6.73-11.87Q91.78,146,72.33,110.9A136.18,136.18,0,0,1,59.79,80.31a66.07,66.07,0,0,1-1.48-24.44c2.28-20.94,13-36.59,31.13-46.82,20.9-11.82,41.77-10.52,61.65,2.75,13.51,9,22.32,21.65,25.68,37.64A70.93,70.93,0,0,1,174,88.05a177.73,177.73,0,0,1-12.74,27.5q-21.14,38.17-42.47,76.23C118.57,192.12,118.35,192.45,118,193Zm.06-104.76a26.12,26.12,0,1,0-25.72-26.1A25.88,25.88,0,0,0,118.05,88.27Z" transform="translate(0 -0.96)"/><path class="cls-1" d="M89.06,170.2c-13.78,1.68-27.43,3.64-40.68,7.71-6.64,2.05-13.13,4.46-18.79,8.64a21.51,21.51,0,0,0-3.75,3.51c-3.26,3.91-3.19,8.13.08,12a27.92,27.92,0,0,0,9.2,6.77C42.8,212.76,51,215.11,59.36,217a238.53,238.53,0,0,0,31.47,4.64,317.61,317.61,0,0,0,48.18.48c17.59-1.16,35-3.43,51.83-9,5.51-1.84,10.89-4,15.57-7.56a22.6,22.6,0,0,0,4.21-4.08c2.77-3.55,2.67-7.42-.05-11a24.74,24.74,0,0,0-8-6.43c-7.72-4.28-16.11-6.72-24.64-8.71a218.57,218.57,0,0,0-28.21-4.52,13.25,13.25,0,0,1-2.75-.54c2.73.21,5.48.31,8.19.66,8.67,1.11,17.37,2.09,26,3.53,12.28,2.06,24.33,5,35.82,10a50.57,50.57,0,0,1,13.28,7.85,16,16,0,0,1,5.47,7.87,10.31,10.31,0,0,1-1.69,8.68,26.08,26.08,0,0,1-8.37,7.55c-8.11,5-17,8-26.18,10.46a249.66,249.66,0,0,1-35.89,6.63,391.8,391.8,0,0,1-61.54,2.29c-19.92-.77-39.7-2.83-59.15-7.35-9.64-2.23-19.09-5.05-28-9.49A38,38,0,0,1,4,211.24c-5.28-5.55-5.33-11.51-.1-17.13,3.71-4,8.41-6.59,13.29-8.85,9.24-4.26,19-6.95,28.88-9.11a280.92,280.92,0,0,1,36.27-5.35C84.58,170.61,86.82,170.4,89.06,170.2Z" transform="translate(0 -0.96)"/></svg>