<svg id="Laag_1" data-name="Laag 1" xmlns="http://www.w3.org/2000/svg" viewBox="0 0 238.3 238.4"><defs><style>.cls-1{fill:#fff;}</style></defs><path class="cls-1" d="M240.64,120.28c-.78,67.43-54.11,118.67-122.18,117.4C54.52,236.48,2.33,183.09,2.35,118.9,2.37,53.07,58.36-2,123.89-.68,189.19.65,241.41,54.75,240.64,120.28ZM218.93,120c.62-54.23-43.66-99.33-97.29-99.1C69.37,21.14,24.9,65.28,24,117.78c-.87,52.71,42.32,97.17,95.34,98.16C174.75,217,218.29,175,218.93,120Z" transform="translate(-2.35 0.7)"/><path class="cls-1" d="M176.45,119.05,93.51,175.8c15.11-37.61,21.58-73.91-6.16-109.5l5.88-4.2Z" transform="translate(-2.35 0.7)"/></svg>