<svg id="Laag_1" data-name="Laag 1" xmlns="http://www.w3.org/2000/svg" viewBox="0 0 179.47 241.89"><defs><style>.cls-1{fill:#1587c9;}</style></defs><path class="cls-1" d="M42.91,44.27c.2-1.56.37-3.13.6-4.69,1.77-11.71,7.26-21.18,16.94-28.15A57.63,57.63,0,0,1,82.16,2c3.93-.85,8-1.23,12-1.81a10.52,10.52,0,0,1,1.14,0c0,1.74,0,3.45,0,5.17q.23,9.19.51,18.41.47,15.59,1,31.15c.14,4.81.25,9.63.43,14.43,0,.81-.27,1.12-1,1.46-5.93,2.93-10.12,7.35-11.5,14a24.53,24.53,0,0,0,2,16.28c6.19,12.34,12.44,24.66,18.92,36.84,6,11.38,12.38,22.61,18.71,33.83a51.41,51.41,0,0,0,5.79,8.43c4.55,5.28,10.49,6.56,17.15,5.15a27.77,27.77,0,0,0,7.68-2.9.84.84,0,0,1,1.12.1q20.55,16.2,41.15,32.38,6.64,5.24,13.32,10.44c.18.14.33.31.59.55-1.14.71-2.21,1.41-3.33,2a134.22,134.22,0,0,1-31.21,12.57c-1.56.42-3.1.89-4.65,1.34H157.38c-.41-.09-.81-.2-1.22-.27a69.4,69.4,0,0,1-22.79-8.74,125.82,125.82,0,0,1-23.82-18.68,193.52,193.52,0,0,1-19.1-21.48c-5.77-7.61-11.3-15.4-16.82-23.19a125.87,125.87,0,0,1-10.18-16.36A163.74,163.74,0,0,1,51.29,119a215.41,215.41,0,0,1-4.8-24.93c-.93-7.46-1.84-14.93-2.51-22.43-.51-5.68-.62-11.39-.91-17.09a3.92,3.92,0,0,0-.16-.74Z" transform="translate(-42.91)"/><path class="cls-1" d="M222.38,206.59c-.92,3-1.84,5.91-2.78,8.87-.73,2.29-1.48,4.59-2.26,7l-57.18-45.41,4.61-2.46c3.11-1.64,6.26-3.2,9.3-5,1.83-1.06,3.57-.74,5.37-.21a23.61,23.61,0,0,1,7.79,4.3q15.65,12.08,31.23,24.23a10.58,10.58,0,0,1,3.55,5.18c.09.29.25.57.37.86Z" transform="translate(-42.91)"/><path class="cls-1" d="M104.93,0C107,.67,109,1.21,111,2a23.65,23.65,0,0,1,6.92,4.44,7.48,7.48,0,0,1,2.65,5.73c.05,10.35.26,20.7.42,31.05.07,4.85.16,9.69.23,14.53a1.81,1.81,0,0,1-.22,1c-2.48,3.12-4.9,6.34-8.64,8.08-1.9.89-3.93,1.49-5.92,2.19a4.16,4.16,0,0,1-1.28.11,1.78,1.78,0,0,1-2-1.84c-.21-2.71-.48-5.42-.57-8.13-.31-9.56-.61-19.11-.82-28.66s-.31-19.18-.43-28.78c0-.6-.32-1.33.42-1.78Z" transform="translate(-42.91)"/></svg>