<svg id="ontwerp" xmlns="http://www.w3.org/2000/svg" xmlns:xlink="http://www.w3.org/1999/xlink" viewBox="0 0 706.35 739.65"><defs><style>.cls-1{fill:#cac9c9;}.cls-2{fill:#1d1d1b;}.cls-3{fill:url(#Naamloos_verloop_18);}</style><linearGradient id="Naamloos_verloop_18" x1="103.02" y1="414.55" x2="733.67" y2="414.55" gradientUnits="userSpaceOnUse"><stop offset="0" stop-color="#fff"/><stop offset="0.54" stop-color="#009fe3"/><stop offset="1" stop-color="#2a3289"/></linearGradient></defs><path d="M65.17,689.93H97.23a71.21,71.21,0,0,1,17.76,2.3,46,46,0,0,1,16.09,7.6,39.72,39.72,0,0,1,11.63,13.92q4.47,8.63,4.47,21.39,0,11.9-4.47,20.44a41.77,41.77,0,0,1-11.63,14A48.33,48.33,0,0,1,115,777.74a62.78,62.78,0,0,1-17.76,2.62H65.17Zm29.51,76.38a54.6,54.6,0,0,0,12.52-1.47,32.27,32.27,0,0,0,11.3-5,26.44,26.44,0,0,0,8.24-9.51q3.2-6,3.19-15.21,0-9.69-3.19-15.83a25.63,25.63,0,0,0-8.24-9.58A30.62,30.62,0,0,0,107.2,705a62.58,62.58,0,0,0-12.52-1.27H81.27v62.58Z" transform="translate(-65.17 -173.23)"/><path d="M158.42,734.89a50.57,50.57,0,0,1,3.64-19.61,43,43,0,0,1,10.09-14.88A44.87,44.87,0,0,1,187.48,691a54.83,54.83,0,0,1,19.35-3.32A55.82,55.82,0,0,1,226.37,691a45.4,45.4,0,0,1,15.45,9.45A42.63,42.63,0,0,1,252,715.28a50.57,50.57,0,0,1,3.64,19.61A49.82,49.82,0,0,1,252,754.24a44.55,44.55,0,0,1-10.16,15.07,46,46,0,0,1-15.45,9.84,53,53,0,0,1-19.54,3.51,52.1,52.1,0,0,1-19.35-3.51,45.47,45.47,0,0,1-15.33-9.84,45,45,0,0,1-10.09-15.07A49.82,49.82,0,0,1,158.42,734.89Zm17.5,0a38.32,38.32,0,0,0,2.23,13.35,31.1,31.1,0,0,0,6.39,10.54,29.23,29.23,0,0,0,9.83,7A31,31,0,0,0,207,768.23a31.49,31.49,0,0,0,12.65-2.49,29.21,29.21,0,0,0,9.9-7,31.26,31.26,0,0,0,6.39-10.54,38.55,38.55,0,0,0,2.23-13.35,37.33,37.33,0,0,0-2.23-13,31.7,31.7,0,0,0-6.33-10.47,29.31,29.31,0,0,0-9.83-7A31.19,31.19,0,0,0,207,701.81a30.65,30.65,0,0,0-12.7,2.55,29.51,29.51,0,0,0-9.78,7,31.84,31.84,0,0,0-6.32,10.47A37.11,37.11,0,0,0,175.92,734.89Z" transform="translate(-65.17 -173.23)"/><path d="M271.2,689.93h25.17l23.5,64.25h.38l23.25-64.25h25.29v90.43h-16V707.69h-.25l-27.46,72.67H313.87l-27.08-72.67h-.26v72.67H271.2Z" transform="translate(-65.17 -173.23)"/><path d="M388.71,689.93h16.1v90.43h-16.1Z" transform="translate(-65.17 -173.23)"/><path d="M424.73,689.93h21.34l42,67.7h.26v-67.7h16.09v90.43H484l-42.92-69.87h-.25v69.87h-16.1Z" transform="translate(-65.17 -173.23)"/><path d="M603.56,775.64a70.4,70.4,0,0,1-15.14,5.17,87.29,87.29,0,0,1-19,1.85,55.14,55.14,0,0,1-20.05-3.51,45.68,45.68,0,0,1-15.58-9.84,44.55,44.55,0,0,1-10.16-15.07A50,50,0,0,1,520,734.89a49.16,49.16,0,0,1,3.77-19.61,43.63,43.63,0,0,1,10.35-14.88A46,46,0,0,1,549.66,691a55.4,55.4,0,0,1,19.41-3.32,60,60,0,0,1,19.86,3.13,40.44,40.44,0,0,1,14.5,8.24l-11.11,12a27.38,27.38,0,0,0-9.65-6.52,33.5,33.5,0,0,0-13.47-2.68,32,32,0,0,0-13,2.55,29.16,29.16,0,0,0-9.89,7A31.7,31.7,0,0,0,540,721.86a37.11,37.11,0,0,0-2.23,13A38.32,38.32,0,0,0,540,748.24a31.1,31.1,0,0,0,6.39,10.54,28.65,28.65,0,0,0,10.09,7A34.56,34.56,0,0,0,570,768.23a46.44,46.44,0,0,0,18-3.2V742h-19V728.76h34.62Z" transform="translate(-65.17 -173.23)"/><path d="M695.14,747.15a37.31,37.31,0,0,1-2.81,14.76,33.07,33.07,0,0,1-7.66,11.17,33.68,33.68,0,0,1-11.5,7.09,43.09,43.09,0,0,1-28.87,0,34.33,34.33,0,0,1-11.56-7.09,31.84,31.84,0,0,1-7.66-11.17,38,38,0,0,1-2.75-14.76V689.93h16.1v56.58a30.89,30.89,0,0,0,1,7.86,19.29,19.29,0,0,0,3.38,7,17.56,17.56,0,0,0,6.26,5,25.19,25.19,0,0,0,19.29,0,17.56,17.56,0,0,0,6.26-5,19.29,19.29,0,0,0,3.38-7,30.46,30.46,0,0,0,1-7.86V689.93h16.09Z" transform="translate(-65.17 -173.23)"/><path d="M760.41,708.83a19.62,19.62,0,0,0-7.22-5.55A21.56,21.56,0,0,0,743.8,701a23.57,23.57,0,0,0-5.62.7,17.3,17.3,0,0,0-5.11,2.18,11.86,11.86,0,0,0-3.76,3.83,10.56,10.56,0,0,0-1.47,5.68,10.1,10.1,0,0,0,1.28,5.24,11.54,11.54,0,0,0,3.51,3.7,23.69,23.69,0,0,0,5.43,2.69c2.12.76,4.47,1.53,7,2.29q4.35,1.41,9,3.2a35,35,0,0,1,8.55,4.72,23.41,23.41,0,0,1,6.39,7.41,22.6,22.6,0,0,1,2.49,11.11,28.33,28.33,0,0,1-2.68,12.71,26.21,26.21,0,0,1-7.15,9,30.67,30.67,0,0,1-10.48,5.36,43.79,43.79,0,0,1-12.64,1.79,47.51,47.51,0,0,1-17.25-3.25,33.38,33.38,0,0,1-13.79-9.65L719,759a23.15,23.15,0,0,0,8.88,7.28A25,25,0,0,0,738.82,769a24.62,24.62,0,0,0,5.75-.7,15.31,15.31,0,0,0,5.3-2.36,13.21,13.21,0,0,0,3.83-4.15,12,12,0,0,0,1.47-6.2,10.08,10.08,0,0,0-1.66-5.94,15,15,0,0,0-4.47-4.08,32,32,0,0,0-6.64-3l-8-2.69a77.55,77.55,0,0,1-8.17-3.07,26.7,26.7,0,0,1-7.35-4.72,22.77,22.77,0,0,1-5.3-7.22,24.68,24.68,0,0,1-2-10.66,23.43,23.43,0,0,1,2.87-11.88,25.45,25.45,0,0,1,7.54-8.24,33.37,33.37,0,0,1,10.6-4.85,46,46,0,0,1,12.07-1.6,43,43,0,0,1,14,2.43,34,34,0,0,1,12.32,7.28Z" transform="translate(-65.17 -173.23)"/><path class="cls-1" d="M125.67,888.62a22.94,22.94,0,0,1-2.24,10.28,23.44,23.44,0,0,1-5.94,7.66,25.12,25.12,0,0,1-8.75,4.73,34.81,34.81,0,0,1-10.54,1.59,38.48,38.48,0,0,1-15.39-3,32.7,32.7,0,0,1-11.56-8.11l2.17-1.91a31.32,31.32,0,0,0,11.31,7.85,35.09,35.09,0,0,0,13.35,2.62,30.06,30.06,0,0,0,9.45-1.47,25.26,25.26,0,0,0,7.92-4.21,19.61,19.61,0,0,0,5.43-6.77,20.74,20.74,0,0,0,2-9.26,16.81,16.81,0,0,0-2.17-8.82,21.6,21.6,0,0,0-5.63-6.13,33.69,33.69,0,0,0-7.85-4.28q-4.41-1.71-8.88-3.13-5.62-1.78-10.28-3.77a30.78,30.78,0,0,1-8-4.85,19.9,19.9,0,0,1-5.24-6.89A23.41,23.41,0,0,1,72.91,841a21.43,21.43,0,0,1,8.31-17.43,28,28,0,0,1,8.87-4.6,35.33,35.33,0,0,1,10.67-1.6A33.37,33.37,0,0,1,113.85,820,25.93,25.93,0,0,1,124,827.43l-2.18,1.92a24,24,0,0,0-9.13-7,29.17,29.17,0,0,0-12.07-2.49,32.2,32.2,0,0,0-9,1.28,25.48,25.48,0,0,0-8,3.89,19.89,19.89,0,0,0-5.74,6.58A19.08,19.08,0,0,0,75.72,841a18.86,18.86,0,0,0,1.92,8.88,19.53,19.53,0,0,0,5.11,6.2A29.55,29.55,0,0,0,90,860.26q4,1.66,8.23,3.06,5.76,1.92,10.73,3.9a38.19,38.19,0,0,1,8.75,4.79,20.13,20.13,0,0,1,5.88,6.83A21,21,0,0,1,125.67,888.62Z" transform="translate(-65.17 -173.23)"/><path class="cls-1" d="M148.4,910.33V819.9h52.75v2.55H151.21v39.73h47v2.55h-47v43h52v2.55Z" transform="translate(-65.17 -173.23)"/><path class="cls-1" d="M275.11,910.33l-27.34-45.6h-21.2v45.6h-2.81V819.9h25a59.09,59.09,0,0,1,10.09.89,25.63,25.63,0,0,1,9.13,3.39A19.6,19.6,0,0,1,274.6,831q2.55,4.35,2.55,11.24a21.07,21.07,0,0,1-2.42,10.6,20.7,20.7,0,0,1-6.26,6.84,26,26,0,0,1-8.5,3.76,37.88,37.88,0,0,1-9.13,1.15l27.46,45.73Zm-.77-68.08a18.92,18.92,0,0,0-2.3-9.77,17,17,0,0,0-6.06-6.13,25.93,25.93,0,0,0-8.69-3.13,55.6,55.6,0,0,0-10-.9H226.57v40h22.1q12.51,0,19.09-5.23T274.34,842.25Z" transform="translate(-65.17 -173.23)"/><path class="cls-1" d="M363.24,910.33V864.86h-60.8v45.47h-2.81V819.9h2.81v42.4h60.8V819.9h2.81v90.43Z" transform="translate(-65.17 -173.23)"/><path class="cls-1" d="M459.3,910.33,448.57,884.4h-52.5L385,910.33h-3.07L421.1,819.9h3.58l37.68,90.43Zm-36.53-88.64L397.09,882h50.58Z" transform="translate(-65.17 -173.23)"/><path class="cls-1" d="M478.2,910.33V819.9H481v87.88h45v2.55Z" transform="translate(-65.17 -173.23)"/><path class="cls-1" d="M608,910.33,597.24,884.4h-52.5l-11.11,25.93h-3.07l39.22-90.43h3.58L611,910.33Zm-36.53-88.64L545.76,882h50.59Z" transform="translate(-65.17 -173.23)"/><path class="cls-1" d="M626.87,910.33V819.9h2.81v90.43Zm63.74-24.65q0,12.51-5.81,19.73t-17.31,7.22a22.44,22.44,0,0,1-13.67-4.15,21.84,21.84,0,0,1-7.79-10l2.43-1.15a22,22,0,0,0,7.53,9.26,19.43,19.43,0,0,0,11.5,3.52,21.26,21.26,0,0,0,9.33-1.86,16.43,16.43,0,0,0,6.25-5.17,22.52,22.52,0,0,0,3.58-7.86,40,40,0,0,0,1.15-9.89V819.9h2.81Z" transform="translate(-65.17 -173.23)"/><path class="cls-2" d="M440.61,411.34A225.33,225.33,0,0,0,410.7,399.2h-.07c-35,52.2-61.75,100.81-61.75,119.18,0,9.42,7,14.13,13.2,14.13,9.42,0,30.58-14.13,32.43-20.69-11.27,5.63-19.23,7-27.26,7C367.25,507.31,399.89,461.68,440.61,411.34ZM575.38,234.45a29,29,0,0,0-10.81-2.39,15.16,15.16,0,0,0-3.78.47c-19.11,3.91-47.76,35.15-57.44,46.16C487.1,296.6,469.53,318.15,452.21,341c-12.27,16.12-24.27,32.9-35.61,49.41a304.56,304.56,0,0,1,31.77,11.41c28.52-34.88,60.22-71,87-99.15,18.9-19.77,27.39-28.26,35.35-34.82,11.8-9.42,22.15-14.59,29.64-10.35C607.41,263.17,596.6,242,575.38,234.45Z" transform="translate(-65.17 -173.23)"/><path class="cls-3" d="M528.75,173.24C399.69,173.7,256.56,241,256.56,312.12a43.74,43.74,0,0,0,19.37,36.08c17.77,24.2,68.24,32.16,113.74,44.7,7.16,2,14.2,4,21,6.3h.07a225.33,225.33,0,0,1,29.91,12.14C461.3,421.82,474.9,435,474.9,452.19c0,56.24-143.39,138.82-259.59,171.05-13.6,1.33-26.86,2-39.73,2-18.84,0-51.33-3.31-51.33-23.54,0-24.8,25.46-55,60.62-83.24a1.26,1.26,0,0,0,.39-.26c26.4-21.36,58.3-41.52,88.74-57.57A636.85,636.85,0,0,0,195.54,498s0,.07-.06.07c-44.24,28.65-78.4,61.55-89,90.53v.06A51.66,51.66,0,0,0,103,606.46c0,13,5.11,22.62,13,29.71,17.91,16.32,50.27,19.7,69.91,19.7a556.46,556.46,0,0,0,82.37-6.43c223.64-33.7,461.94-193.93,465.32-335.93C736,226,655.43,172.77,528.75,173.24Zm-67,372.14c25.07-24.48,40.45-50.68,40.45-77.14,0-33.89-23.08-53.12-53.85-66.39a304.56,304.56,0,0,0-31.77-11.41c-7.5-2.25-15.12-4.44-22.68-6.5-47.56-13.19-92.79-25-92.79-52.26,0-48.55,138.42-126.21,198.7-132.84,6.17-.47,12.27-.93,17.45-.93,17.91,0,30.57,4.24,28.25,19.3-6.1,42.84-98,95.64-117.26,95.64-2.85,0-5.64,0-5.64-2.86,0-6.56,2.79-16.44,9.89-24.47-9.42,5.64-27.79,25.87-27.79,45.23,0,10.35,14.12,14.06,23.54,14.06A86.32,86.32,0,0,0,452.21,341c17.32-22.88,34.89-44.43,51.14-62.34,9.68-11,38.33-42.25,57.44-46.16.13-1.46.26-3,.26-4.45.27-19.89-8.29-32-23.08-38.6,8.36-.59,16.78-.86,25.14-.73,69.24.93,142.26,34.82,142.26,95.11C705.37,375.06,595.21,476.8,461.77,545.38Z" transform="translate(-65.17 -173.23)"/></svg>