<svg id="ontwerp" xmlns="http://www.w3.org/2000/svg" xmlns:xlink="http://www.w3.org/1999/xlink" viewBox="0 0 630.65 482.64"><defs><style>.cls-1{fill:#1d1d1b;}.cls-2{fill:url(#Naamloos_verloop_18);}</style><linearGradient id="Naamloos_verloop_18" x1="103.02" y1="414.55" x2="733.67" y2="414.55" gradientUnits="userSpaceOnUse"><stop offset="0" stop-color="#fff"/><stop offset="0.54" stop-color="#009fe3"/><stop offset="1" stop-color="#2a3289"/></linearGradient></defs><path class="cls-1" d="M440.61,411.34A225.33,225.33,0,0,0,410.7,399.2h-.07c-35,52.2-61.75,100.81-61.75,119.18,0,9.42,7,14.13,13.2,14.13,9.42,0,30.58-14.13,32.43-20.69-11.27,5.63-19.23,7-27.26,7C367.25,507.31,399.89,461.68,440.61,411.34ZM575.38,234.45a29,29,0,0,0-10.81-2.39,15.16,15.16,0,0,0-3.78.47c-19.11,3.91-47.76,35.15-57.44,46.16C487.1,296.6,469.53,318.15,452.21,341c-12.27,16.12-24.27,32.9-35.61,49.41a304.56,304.56,0,0,1,31.77,11.41c28.52-34.88,60.22-71,87-99.15,18.9-19.77,27.39-28.26,35.35-34.82,11.8-9.42,22.15-14.59,29.64-10.35C607.41,263.17,596.6,242,575.38,234.45Z" transform="translate(-103.02 -173.23)"/><path class="cls-2" d="M528.75,173.24C399.69,173.7,256.56,241,256.56,312.12a43.74,43.74,0,0,0,19.37,36.08c17.77,24.2,68.24,32.16,113.74,44.7,7.16,2,14.2,4,21,6.3h.07a225.33,225.33,0,0,1,29.91,12.14C461.3,421.82,474.9,435,474.9,452.19c0,56.24-143.39,138.82-259.59,171.05-13.6,1.33-26.86,2-39.73,2-18.84,0-51.33-3.31-51.33-23.54,0-24.8,25.46-55,60.62-83.24a1.26,1.26,0,0,0,.39-.26c26.4-21.36,58.3-41.52,88.74-57.57A636.85,636.85,0,0,0,195.54,498s0,.07-.06.07c-44.24,28.65-78.4,61.55-89,90.53v.06A51.66,51.66,0,0,0,103,606.46c0,13,5.11,22.62,13,29.71,17.91,16.32,50.27,19.7,69.91,19.7a556.46,556.46,0,0,0,82.37-6.43c223.64-33.7,461.94-193.93,465.32-335.93C736,226,655.43,172.77,528.75,173.24Zm-67,372.14c25.07-24.48,40.45-50.68,40.45-77.14,0-33.89-23.08-53.12-53.85-66.39a304.56,304.56,0,0,0-31.77-11.41c-7.5-2.25-15.12-4.44-22.68-6.5-47.56-13.19-92.79-25-92.79-52.26,0-48.55,138.42-126.21,198.7-132.84,6.17-.47,12.27-.93,17.45-.93,17.91,0,30.57,4.24,28.25,19.3-6.1,42.84-98,95.64-117.26,95.64-2.85,0-5.64,0-5.64-2.86,0-6.56,2.79-16.44,9.89-24.47-9.42,5.64-27.79,25.87-27.79,45.23,0,10.35,14.12,14.06,23.54,14.06A86.32,86.32,0,0,0,452.21,341c17.32-22.88,34.89-44.43,51.14-62.34,9.68-11,38.33-42.25,57.44-46.16.13-1.46.26-3,.26-4.45.27-19.89-8.29-32-23.08-38.6,8.36-.59,16.78-.86,25.14-.73,69.24.93,142.26,34.82,142.26,95.11C705.37,375.06,595.21,476.8,461.77,545.38Z" transform="translate(-103.02 -173.23)"/></svg>